<svg width="42" height="40" viewBox="0 0 42 40" fill="none" xmlns="http://www.w3.org/2000/svg">
<path d="M14.048 32.5131C14.048 32.6827 13.8532 32.8183 13.6077 32.8183C13.3282 32.8438 13.1335 32.7081 13.1335 32.5131C13.1335 32.3436 13.3282 32.2079 13.5738 32.2079C13.8278 32.1825 14.048 32.3181 14.048 32.5131ZM11.4145 32.1316C11.3552 32.3012 11.5246 32.4962 11.7786 32.547C11.9988 32.6318 12.2528 32.547 12.3036 32.3775C12.3544 32.2079 12.1935 32.0129 11.9395 31.9366C11.7194 31.8773 11.4738 31.9621 11.4145 32.1316ZM15.1573 31.9875C14.9117 32.0469 14.7423 32.2079 14.7677 32.4029C14.7931 32.5725 15.0133 32.6827 15.2673 32.6234C15.5129 32.564 15.6823 32.4029 15.6569 32.2334C15.6315 32.0723 15.4028 31.9621 15.1573 31.9875ZM20.729 -0.5C8.98427 -0.5 0 8.42728 0 20.1862C0 29.5882 5.91048 37.6338 14.3528 40.4655C15.4367 40.6604 15.8177 39.9907 15.8177 39.4396C15.8177 38.914 15.7923 36.0145 15.7923 34.2342C15.7923 34.2342 9.86492 35.5059 8.62016 31.7077C8.62016 31.7077 7.65484 29.2406 6.26613 28.6048C6.26613 28.6048 4.32702 27.2738 6.40161 27.2992C6.40161 27.2992 8.51008 27.4688 9.67016 29.4865C11.5246 32.759 14.6323 31.8179 15.8431 31.2584C16.0379 29.9019 16.5883 28.9609 17.198 28.4013C12.4645 27.8757 7.68871 27.189 7.68871 19.0332C7.68871 16.7018 8.33226 15.5318 9.6871 14.0397C9.46694 13.4886 8.74718 11.2165 9.90726 8.28316C11.677 7.73209 15.75 10.5722 15.75 10.5722C17.4435 10.0974 19.2641 9.85158 21.0677 9.85158C22.8714 9.85158 24.6919 10.0974 26.3855 10.5722C26.3855 10.5722 30.4585 7.72361 32.2282 8.28316C33.3883 11.225 32.6685 13.4886 32.4484 14.0397C33.8032 15.5403 34.6331 16.7102 34.6331 19.0332C34.6331 27.2144 29.6456 27.8672 24.9121 28.4013C25.6911 29.0711 26.3516 30.3428 26.3516 32.3351C26.3516 35.1922 26.3262 38.7275 26.3262 39.4227C26.3262 39.9737 26.7157 40.6435 27.7911 40.4485C36.2589 37.6338 42 29.5882 42 20.1862C42 8.42728 32.4738 -0.5 20.729 -0.5ZM8.23065 28.7404C8.12056 28.8252 8.14597 29.0202 8.28992 29.1813C8.4254 29.317 8.62016 29.3763 8.73024 29.2661C8.84032 29.1813 8.81492 28.9863 8.67097 28.8252C8.53548 28.6896 8.34073 28.6302 8.23065 28.7404ZM7.31613 28.0537C7.25686 28.1639 7.34153 28.2996 7.51089 28.3844C7.64637 28.4692 7.81573 28.4437 7.875 28.325C7.93427 28.2148 7.8496 28.0792 7.68024 27.9944C7.51089 27.9435 7.3754 27.969 7.31613 28.0537ZM10.0597 31.0719C9.92419 31.1821 9.975 31.4364 10.1698 31.5975C10.3645 31.7925 10.6101 31.8179 10.7202 31.6823C10.8302 31.5721 10.7794 31.3177 10.6101 31.1567C10.4238 30.9617 10.1698 30.9362 10.0597 31.0719ZM9.09435 29.8256C8.95887 29.9104 8.95887 30.1308 9.09435 30.3258C9.22984 30.5208 9.45847 30.6056 9.56855 30.5208C9.70403 30.4106 9.70403 30.1902 9.56855 29.9952C9.45 29.8002 9.22984 29.7154 9.09435 29.8256Z" fill="#FCF8F8"/>
</svg>
