<svg width="19" height="16" viewBox="0 0 19 16" fill="none" xmlns="http://www.w3.org/2000/svg">
<path fill-rule="evenodd" clip-rule="evenodd" d="M17.9003 1.5157C18.0227 0.930221 17.9003 0.5 17.3178 0.5H15.3914C14.9128 0.5 14.6862 0.854801 14.5619 1.25333C14.556 1.27204 14.5512 1.28869 14.5457 1.3075C14.4524 1.62724 13.5029 4.81982 12.1858 6.93125C11.7368 7.57528 11.5327 7.78025 11.2878 7.78025C11.1654 7.78025 10.9816 7.57529 10.9816 6.98986V1.5157C10.9816 0.813125 10.846 0.5 10.4377 0.5H7.41054C7.10445 0.5 6.92035 0.826079 6.92035 1.13512C6.92035 1.80115 7.61422 1.95475 7.68574 3.8283V7.89736C7.68574 8.78943 7.57342 8.95121 7.3285 8.95121C6.67545 8.95121 5.08688 5.51088 4.14471 1.57423C3.96007 0.809075 3.77487 0.5 3.28254 0.5H1.35614C0.805739 0.5 0.695652 0.871647 0.695652 1.28146C0.695652 2.01333 1.34875 5.64328 3.73656 10.4441C5.32842 13.7227 7.57125 15.5 9.61212 15.5C10.8367 15.5 10.9882 15.1053 10.9882 14.4254V11.9474C10.9882 11.1579 11.1042 11.0003 11.4919 11.0003C11.7776 11.0003 12.2674 11.2053 13.4103 12.7861C14.7165 14.6596 14.9319 15.5 15.6665 15.5H17.593C18.1433 15.5 18.4185 15.1053 18.2598 14.3262C18.086 13.5499 17.4625 12.4235 16.635 11.0882C16.186 10.327 15.5124 9.50739 15.3083 9.09746C15.0463 8.61434 15.0933 8.37729 15.2602 7.98011C15.2917 7.9053 15.3256 7.8332 15.3613 7.76031C15.7107 7.04627 17.6773 2.98197 17.9003 1.5157Z" fill="#FBFAFA"/>
</svg>
