<svg width="15" height="16" viewBox="0 0 15 16" fill="none" xmlns="http://www.w3.org/2000/svg">
<path d="M10.8512 9.48922C10.6678 9.39406 9.77469 8.94734 9.60777 8.88359C9.44085 8.82266 9.31966 8.79078 9.19801 8.97875C9.07911 9.16203 8.72881 9.58156 8.62179 9.70391C8.51478 9.82625 8.4096 9.83562 8.22896 9.75266C8.04558 9.6575 7.45975 9.46203 6.76417 8.82266C6.22088 8.32719 5.85914 7.71688 5.75167 7.52891C5.64466 7.34328 5.73978 7.23828 5.83033 7.14547C5.91356 7.06016 6.01372 6.93078 6.10655 6.81828C6.19481 6.70578 6.22317 6.63031 6.28765 6.50844C6.3471 6.37672 6.31646 6.27406 6.27118 6.18125C6.22591 6.08844 5.86143 5.16828 5.70914 4.80172C5.56371 4.43797 5.41143 4.48438 5.29939 4.48438C5.19466 4.47453 5.07301 4.47453 4.95183 4.47453C4.83064 4.47453 4.63262 4.52094 4.4657 4.69906C4.29878 4.88703 3.82728 5.33609 3.82728 6.24453C3.82728 7.15531 4.47987 8.03656 4.57042 8.16828C4.66326 8.29016 5.85411 10.1652 7.68109 10.9709C8.11692 11.1589 8.45533 11.2714 8.71966 11.3642C9.15548 11.5058 9.55335 11.4861 9.86753 11.4397C10.2151 11.3811 10.9441 10.9878 11.0968 10.5486C11.2518 10.1066 11.2518 9.74047 11.2066 9.6575C11.1613 9.57219 11.0424 9.52578 10.859 9.44281L10.8512 9.48922ZM7.53795 14.0938H7.52835C6.44679 14.0938 5.37759 13.7933 4.44375 13.2317L4.22469 13.0977L1.93811 13.708L2.55274 11.4275L2.40503 11.1931C1.80228 10.2092 1.48079 9.07391 1.48079 7.90719C1.48079 4.50406 4.19862 1.72812 7.54253 1.72812C9.16234 1.72812 10.682 2.375 11.8253 3.54688C12.9686 4.70891 13.5997 6.26656 13.5997 7.91703C13.5951 11.3178 10.8796 14.0938 7.54024 14.0938H7.53795ZM12.6947 2.65578C11.3035 1.27859 9.47423 0.5 7.52835 0.5C3.51493 0.5 0.246947 3.83516 0.24466 7.93391C0.24466 9.24266 0.578044 10.5195 1.21646 11.6497L0.182922 15.5L4.04634 14.4673C5.11097 15.0556 6.30914 15.3706 7.52881 15.373H7.53109C11.5468 15.373 14.8148 12.0378 14.8171 7.93625C14.8171 5.95156 14.062 4.08359 12.6855 2.67969L12.6947 2.65578Z" fill="#FFFEFE"/>
</svg>
