<svg width="305" height="40" viewBox="0 0 305 40" fill="none" xmlns="http://www.w3.org/2000/svg">
<rect width="305" height="40" rx="10" fill="#5A51C1"/>
<path d="M92.4973 10.5909H94.4949L97.9679 19.071H98.0957L101.569 10.5909H103.566V21.5H102V13.6058H101.899L98.6816 21.484H97.3819L94.1646 13.6005H94.0634V21.5H92.4973V10.5909ZM109.278 21.6651C108.511 21.6651 107.841 21.4893 107.27 21.1378C106.698 20.7862 106.254 20.2944 105.938 19.6623C105.622 19.0302 105.464 18.2915 105.464 17.4464C105.464 16.5977 105.622 15.8555 105.938 15.2198C106.254 14.5842 106.698 14.0906 107.27 13.739C107.841 13.3874 108.511 13.2116 109.278 13.2116C110.045 13.2116 110.714 13.3874 111.286 13.739C111.858 14.0906 112.302 14.5842 112.618 15.2198C112.934 15.8555 113.092 16.5977 113.092 17.4464C113.092 18.2915 112.934 19.0302 112.618 19.6623C112.302 20.2944 111.858 20.7862 111.286 21.1378C110.714 21.4893 110.045 21.6651 109.278 21.6651ZM109.283 20.3281C109.78 20.3281 110.192 20.1967 110.519 19.9339C110.846 19.6712 111.087 19.3214 111.243 18.8846C111.403 18.4478 111.483 17.9666 111.483 17.4411C111.483 16.919 111.403 16.4396 111.243 16.0028C111.087 15.5625 110.846 15.2092 110.519 14.9428C110.192 14.6765 109.78 14.5433 109.283 14.5433C108.782 14.5433 108.367 14.6765 108.037 14.9428C107.71 15.2092 107.467 15.5625 107.307 16.0028C107.151 16.4396 107.073 16.919 107.073 17.4411C107.073 17.9666 107.151 18.4478 107.307 18.8846C107.467 19.3214 107.71 19.6712 108.037 19.9339C108.367 20.1967 108.782 20.3281 109.283 20.3281ZM119.749 21.5V14.6765H117.789C117.323 14.6765 116.961 14.7848 116.702 15.0014C116.443 15.218 116.313 15.5021 116.313 15.8537C116.313 16.2017 116.432 16.4822 116.67 16.6953C116.911 16.9048 117.249 17.0096 117.682 17.0096H120.212V18.2987H117.682C117.078 18.2987 116.556 18.1992 116.116 18.0004C115.679 17.7979 115.342 17.5121 115.104 17.1428C114.869 16.7734 114.752 16.3366 114.752 15.8324C114.752 15.3175 114.873 14.8736 115.115 14.5007C115.36 14.1243 115.709 13.8331 116.164 13.6271C116.622 13.4212 117.164 13.3182 117.789 13.3182H121.246V21.5H119.749ZM114.379 21.5L116.686 17.3665H118.316L116.009 21.5H114.379ZM132.566 13.3182V14.6925H128.907V21.5H127.335V13.3182H132.566ZM134.249 24.5682V13.3182H135.805V14.6445H135.938C136.03 14.4741 136.163 14.277 136.337 14.0533C136.511 13.8295 136.753 13.6342 137.062 13.4673C137.371 13.2969 137.779 13.2116 138.287 13.2116C138.948 13.2116 139.537 13.3786 140.055 13.7124C140.574 14.0462 140.981 14.5273 141.275 15.1559C141.574 15.7844 141.723 16.5408 141.723 17.4251C141.723 18.3093 141.575 19.0675 141.281 19.6996C140.986 20.3281 140.581 20.8129 140.066 21.1538C139.551 21.4911 138.964 21.6598 138.303 21.6598C137.806 21.6598 137.399 21.5763 137.083 21.4094C136.771 21.2425 136.526 21.0472 136.348 20.8235C136.171 20.5998 136.034 20.4009 135.938 20.2269H135.842V24.5682H134.249ZM135.81 17.4091C135.81 17.9844 135.894 18.4886 136.06 18.9219C136.227 19.3551 136.469 19.6942 136.785 19.9393C137.101 20.1808 137.488 20.3015 137.946 20.3015C138.422 20.3015 138.82 20.1754 139.139 19.9233C139.459 19.6676 139.7 19.3214 139.864 18.8846C140.031 18.4478 140.114 17.956 140.114 17.4091C140.114 16.8693 140.032 16.3846 139.869 15.9549C139.709 15.5252 139.468 15.1861 139.145 14.9375C138.825 14.6889 138.426 14.5646 137.946 14.5646C137.484 14.5646 137.094 14.6836 136.774 14.9215C136.458 15.1594 136.218 15.4915 136.055 15.9176C135.892 16.3437 135.81 16.8409 135.81 17.4091ZM144.236 24.5682C143.998 24.5682 143.781 24.5487 143.586 24.5096C143.39 24.4741 143.245 24.435 143.149 24.3924L143.532 23.0874C143.824 23.1655 144.083 23.1992 144.31 23.1886C144.537 23.1779 144.738 23.0927 144.912 22.9329C145.09 22.7731 145.246 22.5121 145.381 22.1499L145.578 21.6065L142.584 13.3182H144.289L146.361 19.6676H146.446L148.518 13.3182H150.228L146.856 22.592C146.7 23.0181 146.501 23.3786 146.26 23.6733C146.018 23.9716 145.731 24.1953 145.397 24.3445C145.063 24.4936 144.676 24.5682 144.236 24.5682ZM151.725 21.5V13.3182H158.399V21.5H156.839V14.6925H153.275V21.5H151.725ZM160.529 21.5V13.3182H167.203V21.5H165.642V14.6925H162.079V21.5H160.529ZM171.713 21.6811C171.195 21.6811 170.726 21.5852 170.307 21.3935C169.888 21.1982 169.556 20.9158 169.311 20.5465C169.07 20.1772 168.949 19.7244 168.949 19.1882C168.949 18.7266 169.038 18.3466 169.215 18.0483C169.393 17.75 169.632 17.5138 169.934 17.3398C170.236 17.1658 170.574 17.0344 170.946 16.9457C171.319 16.8569 171.699 16.7894 172.086 16.7433C172.576 16.6864 172.974 16.6403 173.279 16.6048C173.585 16.5657 173.807 16.5036 173.945 16.4183C174.084 16.3331 174.153 16.1946 174.153 16.0028V15.9656C174.153 15.5004 174.022 15.1399 173.759 14.8842C173.5 14.6286 173.113 14.5007 172.598 14.5007C172.061 14.5007 171.639 14.6197 171.33 14.8576C171.025 15.092 170.813 15.353 170.696 15.6406L169.199 15.2997C169.377 14.8026 169.636 14.4013 169.977 14.0959C170.321 13.7869 170.717 13.5632 171.165 13.4247C171.612 13.2827 172.083 13.2116 172.576 13.2116C172.903 13.2116 173.249 13.2507 173.615 13.3288C173.984 13.4034 174.329 13.5419 174.648 13.7443C174.972 13.9467 175.236 14.2362 175.442 14.6126C175.648 14.9854 175.751 15.4702 175.751 16.0668V21.5H174.196V20.3814H174.132C174.029 20.5874 173.874 20.7898 173.668 20.9886C173.462 21.1875 173.198 21.3526 172.875 21.484C172.551 21.6154 172.164 21.6811 171.713 21.6811ZM172.06 20.4027C172.5 20.4027 172.876 20.3157 173.189 20.1417C173.505 19.9677 173.745 19.7404 173.908 19.4599C174.075 19.1758 174.158 18.8722 174.158 18.549V17.4943C174.102 17.5511 173.991 17.6044 173.828 17.6541C173.668 17.7003 173.485 17.7411 173.279 17.7766C173.074 17.8086 172.873 17.8388 172.678 17.8672C172.482 17.892 172.319 17.9134 172.188 17.9311C171.879 17.9702 171.596 18.0359 171.341 18.1282C171.088 18.2205 170.886 18.3537 170.733 18.5277C170.584 18.6982 170.51 18.9254 170.51 19.2095C170.51 19.6037 170.655 19.902 170.946 20.1044C171.238 20.3033 171.609 20.4027 172.06 20.4027ZM181.842 21.5V13.3182H185.235C186.159 13.3182 186.89 13.5153 187.43 13.9094C187.97 14.3001 188.24 14.831 188.24 15.5021C188.24 15.9815 188.087 16.3615 187.781 16.642C187.476 16.9226 187.071 17.1108 186.567 17.2067C186.933 17.2493 187.268 17.3594 187.574 17.5369C187.879 17.7109 188.124 17.9453 188.309 18.2401C188.497 18.5348 188.591 18.8864 188.591 19.2947C188.591 19.728 188.479 20.1115 188.256 20.4453C188.032 20.7756 187.707 21.0348 187.281 21.223C186.858 21.4077 186.349 21.5 185.752 21.5H181.842ZM183.339 20.1683H185.752C186.146 20.1683 186.455 20.0742 186.679 19.886C186.903 19.6978 187.014 19.4421 187.014 19.119C187.014 18.739 186.903 18.4407 186.679 18.2241C186.455 18.0039 186.146 17.8938 185.752 17.8938H183.339V20.1683ZM183.339 16.7273H185.251C185.55 16.7273 185.805 16.6847 186.018 16.5994C186.235 16.5142 186.4 16.3935 186.514 16.2372C186.631 16.0774 186.689 15.8892 186.689 15.6726C186.689 15.3565 186.56 15.1097 186.301 14.9322C186.041 14.7546 185.686 14.6658 185.235 14.6658H183.339V16.7273ZM195.389 10.5909L198.426 19.4759H198.548L201.584 10.5909H203.363L199.438 21.5H197.536L193.61 10.5909H195.389ZM204.939 21.5V10.5909H206.585V15.8004H206.718L211.294 10.5909H213.366L208.966 15.5021L213.382 21.5H211.4L207.874 16.6261L206.585 18.1069V21.5H204.939Z" fill="white"/>
</svg>
