<svg width="305" height="40" viewBox="0 0 305 40" fill="none" xmlns="http://www.w3.org/2000/svg">
<rect width="305" height="40" rx="10" fill="#5A51C1"/>
<path d="M97.4545 16.0455C97.4545 17.2102 97.2414 18.2116 96.8153 19.0497C96.3892 19.8842 95.805 20.527 95.0628 20.978C94.3242 21.4254 93.4843 21.6491 92.5433 21.6491C91.5987 21.6491 90.7553 21.4254 90.0131 20.978C89.2745 20.527 88.6921 19.8825 88.2659 19.0444C87.8398 18.2063 87.6267 17.2067 87.6267 16.0455C87.6267 14.8807 87.8398 13.881 88.2659 13.0465C88.6921 12.2085 89.2745 11.5657 90.0131 11.1183C90.7553 10.6673 91.5987 10.4418 92.5433 10.4418C93.4843 10.4418 94.3242 10.6673 95.0628 11.1183C95.805 11.5657 96.3892 12.2085 96.8153 13.0465C97.2414 13.881 97.4545 14.8807 97.4545 16.0455ZM95.8245 16.0455C95.8245 15.1577 95.6807 14.4102 95.3931 13.8029C95.109 13.1921 94.7184 12.7305 94.2212 12.418C93.7276 12.1019 93.1683 11.9439 92.5433 11.9439C91.9147 11.9439 91.3536 12.1019 90.86 12.418C90.3664 12.7305 89.9758 13.1921 89.6882 13.8029C89.4041 14.4102 89.262 15.1577 89.262 16.0455C89.262 16.9332 89.4041 17.6825 89.6882 18.2933C89.9758 18.9006 90.3664 19.3622 90.86 19.6783C91.3536 19.9908 91.9147 20.147 92.5433 20.147C93.1683 20.147 93.7276 19.9908 94.2212 19.6783C94.7184 19.3622 95.109 18.9006 95.3931 18.2933C95.6807 17.6825 95.8245 16.9332 95.8245 16.0455ZM98.9207 14.6925V13.3182H105.824V14.6925H103.155V21.5H101.6V14.6925H98.9207ZM107.024 19.3374H108.654C108.675 19.6712 108.826 19.9286 109.107 20.1097C109.391 20.2908 109.758 20.3814 110.209 20.3814C110.667 20.3814 111.058 20.2837 111.381 20.0884C111.704 19.8896 111.866 19.5824 111.866 19.1669C111.866 18.9183 111.804 18.7017 111.679 18.517C111.559 18.3288 111.386 18.1832 111.163 18.0803C110.943 17.9773 110.682 17.9258 110.38 17.9258H109.048V16.674H110.38C110.831 16.674 111.168 16.571 111.392 16.3651C111.616 16.1591 111.727 15.9016 111.727 15.5927C111.727 15.2589 111.607 14.9908 111.365 14.7884C111.127 14.5824 110.795 14.4794 110.369 14.4794C109.936 14.4794 109.575 14.5771 109.288 14.7724C109 14.9641 108.849 15.2127 108.835 15.5181H107.226C107.237 15.06 107.375 14.6587 107.642 14.3143C107.912 13.9663 108.274 13.6964 108.728 13.5046C109.187 13.3093 109.707 13.2116 110.289 13.2116C110.896 13.2116 111.422 13.3093 111.866 13.5046C112.31 13.6999 112.652 13.9698 112.894 14.3143C113.139 14.6587 113.261 15.0547 113.261 15.5021C113.261 15.9531 113.127 16.3224 112.857 16.6101C112.59 16.8942 112.242 17.0984 111.813 17.2227V17.3079C112.129 17.3292 112.409 17.4251 112.654 17.5955C112.899 17.766 113.091 17.9915 113.23 18.272C113.368 18.5526 113.437 18.8704 113.437 19.2255C113.437 19.7262 113.299 20.1594 113.022 20.5252C112.748 20.891 112.368 21.1733 111.882 21.3722C111.399 21.5675 110.847 21.6651 110.225 21.6651C109.622 21.6651 109.08 21.571 108.601 21.3828C108.125 21.1911 107.747 20.9212 107.466 20.5732C107.189 20.2251 107.042 19.8132 107.024 19.3374ZM116.28 16.1307H118.656C119.658 16.1307 120.428 16.3793 120.968 16.8764C121.508 17.3736 121.778 18.0146 121.778 18.7994C121.778 19.3107 121.657 19.7706 121.415 20.179C121.174 20.5874 120.821 20.9105 120.355 21.1484C119.89 21.3828 119.324 21.5 118.656 21.5H115.082V13.3182H116.643V20.1257H118.656C119.114 20.1257 119.491 20.0067 119.785 19.7688C120.08 19.5273 120.227 19.2202 120.227 18.8473C120.227 18.4531 120.08 18.1317 119.785 17.8832C119.491 17.631 119.114 17.505 118.656 17.505H116.28V16.1307ZM122.939 21.5V13.3182H124.531V21.5H122.939ZM126.669 21.5V13.3182H130.062C130.985 13.3182 131.717 13.5153 132.257 13.9094C132.796 14.3001 133.066 14.831 133.066 15.5021C133.066 15.9815 132.913 16.3615 132.608 16.642C132.303 16.9226 131.898 17.1108 131.394 17.2067C131.759 17.2493 132.095 17.3594 132.4 17.5369C132.706 17.7109 132.951 17.9453 133.135 18.2401C133.324 18.5348 133.418 18.8864 133.418 19.2947C133.418 19.728 133.306 20.1115 133.082 20.4453C132.858 20.7756 132.534 21.0348 132.107 21.223C131.685 21.4077 131.175 21.5 130.579 21.5H126.669ZM128.166 20.1683H130.579C130.973 20.1683 131.282 20.0742 131.505 19.886C131.729 19.6978 131.841 19.4421 131.841 19.119C131.841 18.739 131.729 18.4407 131.505 18.2241C131.282 18.0039 130.973 17.8938 130.579 17.8938H128.166V20.1683ZM128.166 16.7273H130.078C130.376 16.7273 130.632 16.6847 130.845 16.5994C131.062 16.5142 131.227 16.3935 131.34 16.2372C131.458 16.0774 131.516 15.8892 131.516 15.6726C131.516 15.3565 131.386 15.1097 131.127 14.9322C130.868 14.7546 130.513 14.6658 130.062 14.6658H128.166V16.7273ZM136.363 16.1307H138.739C139.741 16.1307 140.511 16.3793 141.051 16.8764C141.591 17.3736 141.861 18.0146 141.861 18.7994C141.861 19.3107 141.74 19.7706 141.498 20.179C141.257 20.5874 140.904 20.9105 140.438 21.1484C139.973 21.3828 139.407 21.5 138.739 21.5H135.165V13.3182H136.726V20.1257H138.739C139.197 20.1257 139.574 20.0067 139.868 19.7688C140.163 19.5273 140.311 19.2202 140.311 18.8473C140.311 18.4531 140.163 18.1317 139.868 17.8832C139.574 17.631 139.197 17.505 138.739 17.505H136.363V16.1307ZM143.022 21.5V13.3182H144.614V21.5H143.022ZM150.722 21.5V13.3182H152.314V16.7486H153.081L155.782 13.3182H157.753L154.583 17.2972L157.79 21.5H155.814L153.348 18.2294H152.314V21.5H150.722ZM158.383 21.5L158.377 20.1204H158.67C158.898 20.1204 159.088 20.0724 159.24 19.9766C159.397 19.8771 159.524 19.7102 159.624 19.4759C159.723 19.2415 159.8 18.9183 159.853 18.5064C159.906 18.0909 159.945 17.5689 159.97 16.9403L160.114 13.3182H165.824V21.5H164.263V14.6925H161.589L161.462 17.473C161.43 18.1477 161.36 18.7372 161.254 19.2415C161.151 19.7457 161 20.1665 160.801 20.5039C160.602 20.8377 160.346 21.0881 160.034 21.255C159.721 21.4183 159.341 21.5 158.894 21.5H158.383ZM169.509 19.2681L173.115 13.3182H174.83V21.5H173.269V15.5447L169.679 21.5H167.948V13.3182H169.509V19.2681ZM180.498 21.6651C179.692 21.6651 178.997 21.4929 178.415 21.1484C177.836 20.8004 177.389 20.3121 177.073 19.6836C176.76 19.0515 176.604 18.3111 176.604 17.4624C176.604 16.6243 176.76 15.8857 177.073 15.2464C177.389 14.6072 177.829 14.1083 178.394 13.7496C178.962 13.391 179.626 13.2116 180.386 13.2116C180.848 13.2116 181.295 13.288 181.728 13.4407C182.162 13.5934 182.55 13.8331 182.895 14.1598C183.239 14.4865 183.511 14.9109 183.71 15.4329C183.909 15.9513 184.008 16.5817 184.008 17.3239V17.8885H177.504V16.6953H182.447C182.447 16.2763 182.362 15.9052 182.192 15.582C182.021 15.2553 181.782 14.9979 181.473 14.8097C181.167 14.6214 180.809 14.5273 180.397 14.5273C179.949 14.5273 179.559 14.6374 179.225 14.8576C178.894 15.0742 178.639 15.3583 178.458 15.7099C178.28 16.0579 178.191 16.4361 178.191 16.8445V17.7766C178.191 18.3235 178.287 18.7887 178.479 19.1722C178.674 19.5558 178.946 19.8487 179.294 20.0511C179.642 20.25 180.049 20.3494 180.514 20.3494C180.816 20.3494 181.091 20.3068 181.339 20.2216C181.588 20.1328 181.803 20.0014 181.984 19.8274C182.165 19.6534 182.304 19.4386 182.399 19.1829L183.907 19.4545C183.786 19.8984 183.57 20.2873 183.257 20.6211C182.948 20.9513 182.559 21.2088 182.091 21.3935C181.625 21.5746 181.094 21.6651 180.498 21.6651ZM191.32 16.7219V18.1016H186.889V16.7219H191.32ZM187.336 13.3182V21.5H185.775V13.3182H187.336ZM192.434 13.3182V21.5H190.878V13.3182H192.434ZM193.55 14.6925V13.3182H200.453V14.6925H197.784V21.5H196.229V14.6925H193.55ZM205.203 21.6651C204.436 21.6651 203.767 21.4893 203.195 21.1378C202.623 20.7862 202.179 20.2944 201.863 19.6623C201.547 19.0302 201.389 18.2915 201.389 17.4464C201.389 16.5977 201.547 15.8555 201.863 15.2198C202.179 14.5842 202.623 14.0906 203.195 13.739C203.767 13.3874 204.436 13.2116 205.203 13.2116C205.97 13.2116 206.64 13.3874 207.211 13.739C207.783 14.0906 208.227 14.5842 208.543 15.2198C208.859 15.8555 209.017 16.5977 209.017 17.4464C209.017 18.2915 208.859 19.0302 208.543 19.6623C208.227 20.2944 207.783 20.7862 207.211 21.1378C206.64 21.4893 205.97 21.6651 205.203 21.6651ZM205.208 20.3281C205.706 20.3281 206.117 20.1967 206.444 19.9339C206.771 19.6712 207.012 19.3214 207.169 18.8846C207.328 18.4478 207.408 17.9666 207.408 17.4411C207.408 16.919 207.328 16.4396 207.169 16.0028C207.012 15.5625 206.771 15.2092 206.444 14.9428C206.117 14.6765 205.706 14.5433 205.208 14.5433C204.708 14.5433 204.292 14.6765 203.962 14.9428C203.635 15.2092 203.392 15.5625 203.232 16.0028C203.076 16.4396 202.998 16.919 202.998 17.4411C202.998 17.9666 203.076 18.4478 203.232 18.8846C203.392 19.3214 203.635 19.6712 203.962 19.9339C204.292 20.1967 204.708 20.3281 205.208 20.3281ZM210.795 21.5V13.3182H214.188C215.111 13.3182 215.843 13.5153 216.383 13.9094C216.922 14.3001 217.192 14.831 217.192 15.5021C217.192 15.9815 217.039 16.3615 216.734 16.642C216.429 16.9226 216.024 17.1108 215.52 17.2067C215.885 17.2493 216.221 17.3594 216.526 17.5369C216.832 17.7109 217.077 17.9453 217.261 18.2401C217.45 18.5348 217.544 18.8864 217.544 19.2947C217.544 19.728 217.432 20.1115 217.208 20.4453C216.984 20.7756 216.659 21.0348 216.233 21.223C215.811 21.4077 215.301 21.5 214.705 21.5H210.795ZM212.292 20.1683H214.705C215.099 20.1683 215.408 20.0742 215.631 19.886C215.855 19.6978 215.967 19.4421 215.967 19.119C215.967 18.739 215.855 18.4407 215.631 18.2241C215.408 18.0039 215.099 17.8938 214.705 17.8938H212.292V20.1683ZM212.292 16.7273H214.204C214.502 16.7273 214.758 16.6847 214.971 16.5994C215.188 16.5142 215.353 16.3935 215.466 16.2372C215.583 16.0774 215.642 15.8892 215.642 15.6726C215.642 15.3565 215.512 15.1097 215.253 14.9322C214.994 14.7546 214.639 14.6658 214.188 14.6658H212.292V16.7273Z" fill="white"/>
</svg>
